<?xml version="1.0" encoding="UTF-8" standalone="no"?>
<svg
   xmlns:dc="http://purl.org/dc/elements/1.1/"
   xmlns:cc="http://creativecommons.org/ns#"
   xmlns:rdf="http://www.w3.org/1999/02/22-rdf-syntax-ns#"
   xmlns:svg="http://www.w3.org/2000/svg"
   xmlns="http://www.w3.org/2000/svg"
   xmlns:sodipodi="http://sodipodi.sourceforge.net/DTD/sodipodi-0.dtd"
   xmlns:inkscape="http://www.inkscape.org/namespaces/inkscape"
   height="512pt"
   viewBox="0 0 512 512"
   width="512pt"
   version="1.1"
   id="svg10"
   sodipodi:docname="geometry_icon.svg"
   inkscape:version="1.0.2-2 (e86c870879, 2021-01-15)">
  <metadata
     id="metadata16">
    <rdf:RDF>
      <cc:Work
         rdf:about="">
        <dc:format>image/svg+xml</dc:format>
        <dc:type
           rdf:resource="http://purl.org/dc/dcmitype/StillImage" />
        <dc:title></dc:title>
      </cc:Work>
    </rdf:RDF>
  </metadata>
  <defs
     id="defs14" />
  <sodipodi:namedview
     pagecolor="#ffffff"
     bordercolor="#666666"
     borderopacity="1"
     objecttolerance="10"
     gridtolerance="10"
     guidetolerance="10"
     inkscape:pageopacity="0"
     inkscape:pageshadow="2"
     inkscape:window-width="1920"
     inkscape:window-height="1017"
     id="namedview12"
     showgrid="false"
     inkscape:zoom="1.2451172"
     inkscape:cx="186.72941"
     inkscape:cy="341.33333"
     inkscape:window-x="-8"
     inkscape:window-y="-8"
     inkscape:window-maximized="1"
     inkscape:current-layer="svg10" />
  <path
     d="m285.9375 512h226.0625v-226.0625h-226.0625zm29.972656-196.089844h166.117188v166.117188h-166.117188zm0 0"
     id="path2"
     style="fill:#ea4335;fill-opacity:1" />
  <path
     d="m389.839844 244.316406c67.359375 0 122.160156-54.800781 122.160156-122.160156 0-67.355469-54.800781-122.15625-122.160156-122.15625s-122.15625 54.800781-122.15625 122.160156 54.800781 122.15625 122.15625 122.15625zm0-214.34375c50.832031 0 92.1875 41.355469 92.1875 92.1875 0 50.832032-41.355469 92.183594-92.1875 92.183594-50.832032 0-92.183594-41.355469-92.183594-92.1875s41.355469-92.183594 92.183594-92.183594zm0 0"
     id="path4"
     style="fill:#34a853;fill-opacity:1" />
  <path
     d="m0 231.3125h262.703125l-131.351563-231.3125zm51.488281-29.972656 79.863281-140.640625 79.863282 140.640625zm0 0"
     id="path6"
     style="fill:#4285f4;fill-opacity:1" />
  <path
     d="m63.648438 291.515625-63.648438 110.242187 63.648438 110.242188h127.296874l63.652344-110.242188-63.652344-110.246093h-127.296874zm109.992187 190.511719h-92.6875l-46.34375-80.269532 46.34375-80.273437h92.6875l46.34375 80.273437zm0 0"
     id="path8"
     style="fill:#fbbc05;fill-opacity:1" />
</svg>
