<?xml version="1.0" encoding="UTF-8" standalone="no"?>
<svg
   xmlns:dc="http://purl.org/dc/elements/1.1/"
   xmlns:cc="http://creativecommons.org/ns#"
   xmlns:rdf="http://www.w3.org/1999/02/22-rdf-syntax-ns#"
   xmlns:svg="http://www.w3.org/2000/svg"
   xmlns="http://www.w3.org/2000/svg"
   xmlns:sodipodi="http://sodipodi.sourceforge.net/DTD/sodipodi-0.dtd"
   xmlns:inkscape="http://www.inkscape.org/namespaces/inkscape"
   id="Logo_FIXED"
   data-name="Logo — FIXED"
   viewBox="0 0 250 203.13794"
   version="1.1"
   sodipodi:docname="twitter_logo_fixed.svg"
   width="250"
   height="203.13794"
   inkscape:version="1.0.2-2 (e86c870879, 2021-01-15)">
  <metadata
     id="metadata38">
    <rdf:RDF>
      <cc:Work
         rdf:about="">
        <dc:format>image/svg+xml</dc:format>
        <dc:type
           rdf:resource="http://purl.org/dc/dcmitype/StillImage" />
        <dc:title>Twitter_Logo_Blue</dc:title>
      </cc:Work>
    </rdf:RDF>
  </metadata>
  <sodipodi:namedview
     pagecolor="#ffffff"
     bordercolor="#666666"
     borderopacity="1"
     objecttolerance="10"
     gridtolerance="10"
     guidetolerance="10"
     inkscape:pageopacity="0"
     inkscape:pageshadow="2"
     inkscape:window-width="1298"
     inkscape:window-height="1040"
     id="namedview36"
     showgrid="false"
     fit-margin-top="0"
     fit-margin-left="0"
     fit-margin-right="0"
     fit-margin-bottom="0"
     inkscape:zoom="2.0675"
     inkscape:cx="134.18984"
     inkscape:cy="141.27466"
     inkscape:window-x="234"
     inkscape:window-y="0"
     inkscape:window-maximized="0"
     inkscape:current-layer="Logo_FIXED" />
  <defs
     id="defs27">
    <style
       id="style25">.cls-1{fill:none;}.cls-2{fill:#1da1f2;}</style>
  </defs>
  <title
     id="title29">Twitter_Logo_Blue</title>
  <rect
     class="cls-1"
     width="400"
     height="400"
     id="rect31"
     x="-65.810158"
     y="-58.725338" />
  <path
     class="cls-2"
     d="m 78.620003,203.13794 c 94.339997,0 145.939997,-78.16 145.939997,-145.939998 0,-2.22 0,-4.43 -0.15,-6.63 A 104.36,104.36 0 0 0 250,24.017939 a 102.38,102.38 0 0 1 -29.46,8.07 51.47,51.47 0 0 0 22.55,-28.37 102.79,102.79 0 0 1 -32.57,12.45 51.34,51.34 0 0 0 -87.41,46.780003 145.62,145.62 0 0 1 -105.709999,-53.590003 51.33,51.33 0 0 0 15.88,68.470003 50.91,50.91 0 0 1 -23.28,-6.42 c 0,0.21 0,0.43 0,0.65 a 51.31,51.31 0 0 0 41.150002,50.279998 51.21,51.21 0 0 1 -23.160002,0.88 51.35,51.35 0 0 0 47.920002,35.62 102.92,102.92 0 0 1 -63.700002,22 A 104.41,104.41 0 0 1 0,180.09794 a 145.21,145.21 0 0 0 78.620003,23"
     id="path33" />
</svg>
